inDegrees=no
num_controls=7
num_derivatives=13
num_iterations=75
num_multipliers=7
num_parameters=0
num_slacks=7
num_states=26
objective=0.451314
objective_accelerations=0.049966
objective_balance=0.001062
objective_effort=0.038980
objective_height=0.355745
objective_ligament=0.005560
solver_duration=789.250147
status=Solve_Succeeded
success=true
DataType=double
version=3
OpenSimVersion=4.5
endheader
time	/jointset/ground_pelvis/pelvis_tilt/value	/jointset/ground_pelvis/pelvis_tx/value	/jointset/ground_pelvis/pelvis_ty/value	/jointset/hip_r/hip_flexion_r/value	/jointset/hip_r/hip_adduction_r/value	/jointset/hip_r/hip_rotation_r/value	/jointset/back/lumbar_extension/value	/jointset/patellofemoral_r/patellar_flexion_r/value	/jointset/knee_r/knee_flexion_r/value	/jointset/knee_r/knee_adduction_r/value	/jointset/knee_r/knee_rotation_r/value	/jointset/ankle_r/ankle_angle_r/value	/jointset/subtalar_r/subtalar_angle_r/value	/jointset/ground_pelvis/pelvis_tilt/speed	/jointset/ground_pelvis/pelvis_tx/speed	/jointset/ground_pelvis/pelvis_ty/speed	/jointset/hip_r/hip_flexion_r/speed	/jointset/hip_r/hip_adduction_r/speed	/jointset/hip_r/hip_rotation_r/speed	/jointset/back/lumbar_extension/speed	/jointset/patellofemoral_r/patellar_flexion_r/speed	/jointset/knee_r/knee_flexion_r/speed	/jointset/knee_r/knee_adduction_r/speed	/jointset/knee_r/knee_rotation_r/speed	/jointset/ankle_r/ankle_angle_r/speed	/jointset/subtalar_r/subtalar_angle_r/speed	/forceset/tau_hip_flexion_r	/forceset/tau_hip_adduction_r	/forceset/tau_hip_rotation_r	/forceset/tau_knee_flexion_r	/forceset/tau_ankle_angle_r	/forceset/tau_subtalar_angle_r	/forceset/tau_lumbar_extension	lambda_cid13_p0	lambda_cid14_p0	lambda_cid14_p1	lambda_cid14_p2	lambda_cid14_p3	lambda_cid14_p4	lambda_cid14_p5	/jointset/ground_pelvis/pelvis_tilt/accel	/jointset/ground_pelvis/pelvis_tx/accel	/jointset/ground_pelvis/pelvis_ty/accel	/jointset/hip_r/hip_flexion_r/accel	/jointset/hip_r/hip_adduction_r/accel	/jointset/hip_r/hip_rotation_r/accel	/jointset/back/lumbar_extension/accel	/jointset/patellofemoral_r/patellar_flexion_r/accel	/jointset/knee_r/knee_flexion_r/accel	/jointset/knee_r/knee_adduction_r/accel	/jointset/knee_r/knee_rotation_r/accel	/jointset/ankle_r/ankle_angle_r/accel	/jointset/subtalar_r/subtalar_angle_r/accel	gamma_cid13_p0	gamma_cid14_p0	gamma_cid14_p1	gamma_cid14_p2	gamma_cid14_p3	gamma_cid14_p4	gamma_cid14_p5
1	-0.2380197940576775	-0.01848404388672592	0.6163795213171595	1.481847773415198	-0.24012746654059	-0.0747542619134945	-0.7853960359418124	1.560091008350519	1.560091008350711	-0.1745167826600859	0.174459042337357	0.4362567928005945	0.1720447337866817	0.06669463531072066	0.00496254172324296	0.01692996054478407	-0.1014401805783462	-0.0006953163233450555	-0.00228649116156764	0.0002518614959911755	-0.02225060665669199	-0.02225060665669291	0.004810113358333948	-0.0005236180452088342	0.01227942709646509	0.004990620053783348	-0.3419730072957224	0.03831674025484033	0.008554401332913878	-0.4793772673352248	-0.006978663165893823	-0.001278749308472049	0.3649754867665474	-0.04045705513906472	-55.30549225710544	-15.45307239758311	8.841355675736404	8.300034479518123	-778.9505831040294	60.74994389297669	1.289259943567061	0.1413925127631648	1.987881901672613	-5.859806837220526	0.2699018553423881	-0.7621807411942481	0.01445255418308168	-5.376890241504241	-5.376890241504434	0.5935527987524825	-0.05288797080404439	-0.9561467068331516	0.04179967369180713	9.507057050150767e-10	3.736545487999314e-09	1.157738615935045e-08	8.59382829421825e-09	-6.347520545851278e-09	-3.211213741723927e-09	1.925299085377363e-08
1.01	-0.237289532257043	-0.01842727821496647	0.6166478992010928	1.480542024461518	-0.2401210211648885	-0.07481211922425511	-0.7853906642979549	1.559600484021265	1.559600484021409	-0.1744359074642328	0.1744509728764579	0.4363318397249962	0.1720964996620747	0.07930637618469327	0.006400962155249075	0.03672608705091682	-0.1596306380740442	0.001972675351455132	-0.009228857790839731	0.0009633515602738648	-0.075812494120007	-0.07581249412000385	0.01142607534179608	-0.001074267980191082	0.002738264097604085	0.005342909896633435	-0.3420414362951734	0.03828805756184866	0.008601996977387888	-0.4790897483998021	-0.007133217240167178	-0.001241743256131237	0.3652980187563023	-0.0404566213116096	-55.34002710249565	-15.43495307402213	8.829221408486118	8.189760784255879	-778.8512232126128	60.75031006010217	1.239430465195744	0.1466196100592262	1.972546894851956	-5.786817799068	0.2634958494892377	-0.6518454674565195	0.1206298702878891	-5.339574351861929	-5.339574351861212	0.7047901258579446	-0.05374024297556203	-0.9518547440387268	0.02900873866404726	5.525035305078242e-09	1.222669297363437e-08	4.334079197937402e-08	4.340369480610982e-08	-1.306895337849146e-08	-8.702451763575766e-09	8.792222589563923e-08
1.02	-0.2364346931864915	-0.01835581777855904	0.6171136521240408	1.478656740414216	-0.2400882462672503	-0.07493771637004819	-0.7853739512256641	1.558575593546755	1.558575593546855	-0.1742870382029734	0.1744378795685761	0.4363117242900278	0.1721512014557127	0.09161008929400255	0.007901494652839226	0.0564049683477796	-0.2173471993026866	0.004570588063876817	-0.01583445816662686	0.002520147134032489	-0.1291238357079946	-0.1291238357079866	0.01840892643385444	-0.00152838744038338	-0.006753044806303108	0.005577803702781247	-0.3421098652946325	0.03825937486883967	0.008649592621915338	-0.478802229464375	-0.007287771314444269	-0.001204737203825952	0.3656205507460485	-0.04046371710001408	-55.38203672261633	-15.41425279027203	8.812232256102108	8.082229119883207	-778.8707443768735	60.78185993134478	1.227654390634397	0.1538149258799787	1.964432859818619	-5.76502758380942	0.2558860628666905	-0.6948274904973153	0.1835136560777949	-5.326781066438756	-5.326781066438795	0.6669306204716571	-0.03358187584606158	-0.9461758878423713	0.01832046635137004	1.271629051301833e-08	2.221974434613641e-08	7.987847338036974e-08	9.34329601321191e-08	-1.77859760859276e-08	-1.74299517830822e-08	1.797687994491119e-07
1.03	-0.2354582892398723	-0.01826902719727068	0.6177756016610334	1.476196616505032	-0.2400298355739956	-0.07512783834338091	-0.7853375219306169	1.557018722477119	1.557018722477273	-0.1740666306312877	0.1744207576977901	0.4361968024446563	0.1722076062270859	0.1036233458860183	0.009468382999407228	0.07596449031046525	-0.2746000566253164	0.00710228630318218	-0.02215051431576902	0.004902179098923428	-0.1822205782950644	-0.1822205782950662	0.0257173254502398	-0.001881396061328082	-0.0162368934025558	0.005681197439077463	-0.3419828809762449	0.03825949230162227	0.008768365090840309	-0.4783894302296979	-0.007354020895135145	-0.001194664190121094	0.36582289178575	-0.04048117257278579	-55.38714889614774	-15.40024708419463	8.797976214125194	7.967120779484981	-778.7194829479005	60.78487741604674	1.181063940356529	0.1598854733139786	1.948639262268393	-5.693780377833571	0.2504401513558418	-0.5940708015739826	0.2860180502602634	-5.296654896790446	-5.296654896791896	0.7695010801678068	-0.03393223947764839	-0.9503237761927674	0.003091135151904359	1.993424904348779e-08	3.222813147258608e-08	1.164648718791305e-07	1.436175254460276e-07	-2.248254562882083e-08	-2.619047488419738e-08	2.718518764567848e-07
1.04	-0.2343631721979585	-0.01816621579566294	0.6186325318972077	1.473166290908362	-0.2399463822089672	-0.07537993610310238	-0.7852731782992096	1.554931777173223	1.55493177717343	-0.1737717977618511	0.1744005513639358	0.43598687522717	0.1722643933973986	0.1153527083528928	0.01110565871671572	0.09540110818415273	-0.3313875368016967	0.009579122418227896	-0.02822961544296518	0.008103014406436513	-0.2351386825601086	-0.2351386825601202	0.03329398598446127	-0.002145280052631898	-0.02575411922585035	0.00565428349070003	-0.3418558966578101	0.0382596097343912	0.008887137559844783	-0.4779766309950125	-0.007420270475837898	-0.001184591176449669	0.3660252328254949	-0.04050605470066502	-55.39962345436434	-15.38335343417084	8.778488186875741	7.853633368013115	-778.6872837829334	60.82027757966985	1.170875565606136	0.1678924000280963	1.939852042018986	-5.671952154559539	0.2449136380147531	-0.6474364861081351	0.3472743246022235	-5.291053402033617	-5.291053402033676	0.7205829240388653	-0.01575694991787681	-0.9528513332507003	-0.007741070583351657	2.639680651877688e-08	4.148503101844341e-08	1.490463814881958e-07	1.894540027613077e-07	-2.726112744335278e-08	-3.341651938383446e-08	3.539969633202177e-07
